<svg xmlns="http://www.w3.org/2000/svg" viewBox="0 0 1200 800" role="img" aria-label="News fallback image">
  <defs>
    <linearGradient id="sky" x1="0%" y1="0%" x2="100%" y2="100%">
      <stop offset="0%" stop-color="#dfe7ef" />
      <stop offset="55%" stop-color="#f7f7f5" />
      <stop offset="100%" stop-color="#ece7df" />
    </linearGradient>
    <linearGradient id="accent" x1="0%" y1="0%" x2="100%" y2="100%">
      <stop offset="0%" stop-color="#0a8f07" />
      <stop offset="100%" stop-color="#126b10" />
    </linearGradient>
    <linearGradient id="panel" x1="0%" y1="0%" x2="0%" y2="100%">
      <stop offset="0%" stop-color="#ffffff" />
      <stop offset="100%" stop-color="#f1f1ee" />
    </linearGradient>
  </defs>

  <rect width="1200" height="800" fill="url(#sky)" />
  <path d="M0 620C180 560 280 548 420 576C540 600 644 640 776 650C930 662 1048 622 1200 572V800H0Z" fill="#d7d1c7" />
  <path d="M0 556C126 506 250 488 372 514C506 542 602 610 740 622C888 634 1018 592 1200 530V800H0Z" fill="#b7b0a4" opacity="0.35" />

  <g transform="translate(92 114)">
    <rect x="0" y="0" width="500" height="420" rx="26" fill="url(#panel)" stroke="#d7d7d2" />
    <rect x="34" y="38" width="110" height="18" rx="9" fill="#0a8f07" />
    <rect x="34" y="76" width="278" height="32" rx="10" fill="#d9d9d4" />
    <rect x="34" y="126" width="420" height="16" rx="8" fill="#e3e3de" />
    <rect x="34" y="154" width="392" height="16" rx="8" fill="#e3e3de" />
    <rect x="34" y="182" width="360" height="16" rx="8" fill="#e3e3de" />
    <rect x="34" y="228" width="434" height="150" rx="18" fill="#cfcfc8" />
    <rect x="52" y="246" width="152" height="18" rx="9" fill="#ffffff" opacity="0.85" />
    <rect x="52" y="276" width="250" height="16" rx="8" fill="#ffffff" opacity="0.7" />
    <rect x="52" y="304" width="210" height="16" rx="8" fill="#ffffff" opacity="0.7" />
    <circle cx="402" cy="302" r="36" fill="url(#accent)" />
    <path d="M392 302h20M402 292v20" stroke="#fff" stroke-width="7" stroke-linecap="round" />
  </g>

  <g transform="translate(708 134)">
    <rect x="0" y="0" width="316" height="470" rx="24" fill="#101010" opacity="0.9" />
    <rect x="20" y="20" width="276" height="170" rx="14" fill="#1d1d1d" />
    <rect x="20" y="210" width="276" height="24" rx="10" fill="#ededed" opacity="0.95" />
    <rect x="20" y="250" width="220" height="16" rx="8" fill="#d7d7d7" />
    <rect x="20" y="278" width="254" height="16" rx="8" fill="#d7d7d7" />
    <rect x="20" y="306" width="198" height="16" rx="8" fill="#d7d7d7" />
    <rect x="20" y="344" width="120" height="94" rx="18" fill="url(#accent)" />
    <rect x="154" y="344" width="142" height="94" rx="18" fill="#2a2a2a" />
    <path d="M52 74l42-28 44 28M44 144l50-62 52 62" stroke="#5a5a5a" stroke-width="10" stroke-linecap="round" stroke-linejoin="round" />
    <circle cx="238" cy="122" r="42" fill="#d6a43f" />
  </g>

  <g transform="translate(826 494)">
    <rect x="0" y="0" width="206" height="124" rx="24" fill="url(#accent)" />
    <rect x="24" y="22" width="158" height="16" rx="8" fill="#ffffff" opacity="0.92" />
    <rect x="24" y="50" width="124" height="12" rx="6" fill="#ffffff" opacity="0.75" />
    <rect x="24" y="72" width="104" height="12" rx="6" fill="#ffffff" opacity="0.75" />
  </g>

  <g opacity="0.25">
    <circle cx="176" cy="660" r="20" fill="#0a8f07" />
    <circle cx="220" cy="684" r="10" fill="#0a8f07" />
    <circle cx="972" cy="686" r="16" fill="#0a8f07" />
    <circle cx="1020" cy="660" r="26" fill="#0a8f07" />
  </g>
</svg>
